<svg xmlns="http://www.w3.org/2000/svg" viewBox="0 0 52 48">
  <path fill="#000" d="M7 8C15 1 32 1 43 8c8 6 11 19 5 28-6 10-22 14-34 8C2 38-2 19 7 8Z"/>
  <path fill="#000" d="M7 10C13 4 24 2 33 5 21 8 14 18 15 31c-5-4-8-9-9-15-1-2-1-4 1-6Z"/>
  <path fill="#ea2500" d="M29 31c7-4 16-3 20 2-4 9-17 14-28 10 1-5 4-9 8-12Z"/>
  <ellipse cx="35" cy="17" rx="5" ry="6" fill="#fff"/>
  <ellipse cx="37" cy="18" rx="2.4" ry="3.6" fill="#000"/>
  <circle cx="38" cy="16.8" r=".9" fill="#fff"/>
  <path d="M42 36c2 1 3 1 5 0" fill="none" stroke="#000" stroke-width="1.8" stroke-linecap="round"/>
</svg>
